<svg id="Filled" height="512" viewBox="0 0 512 512" width="512" xmlns="http://www.w3.org/2000/svg"><path d="m400 280h-192a63.976 63.976 0 0 0 -56.027 33.061c.012-.353.027-.7.027-1.061a32.02 32.02 0 1 0 -6.811 19.723 64.321 64.321 0 0 0 -1.189 12.277h280v-40a24 24 0 0 0 -24-24z" fill="#f0dfce"/><path d="m424 304v40h-200v-64h176a24.006 24.006 0 0 1 24 24z" fill="#67c5e0"/><circle cx="40" cy="464" fill="#7e8589" r="24"/><circle cx="472" cy="464" fill="#7e8589" r="24"/><path d="m232 96h48a0 0 0 0 1 0 0v56a24 24 0 0 1 -24 24 24 24 0 0 1 -24-24v-56a0 0 0 0 1 0 0z" fill="#e9eef2"/><path d="m280 128v24a24 24 0 0 1 -48 0v-24z" fill="#67c5e0"/><path d="m392 152v24h32v-24h24v-32h-24v-24h-32v24h-24v32z" fill="#3397e8"/><g fill="#2d85cc"><path d="m24 344h464v32h-464z"/><path d="m24 200a32 32 0 0 1 32 32v144a0 0 0 0 1 0 0h-32a0 0 0 0 1 0 0v-176a0 0 0 0 1 0 0z"/><path d="m488 280a0 0 0 0 1 0 0v96a0 0 0 0 1 0 0h-32a0 0 0 0 1 0 0v-64a32 32 0 0 1 32-32z"/></g><path d="m480 433.013v-49.013h8a8 8 0 0 0 8-8v-96a8 8 0 0 0 -8-8 40.045 40.045 0 0 0 -40 40v24h-16v-32a32.036 32.036 0 0 0 -32-32h-192a72.061 72.061 0 0 0 -52.121 22.341 39.988 39.988 0 1 0 -67.857 41.659h-24.022v-104a40.067 40.067 0 0 0 -32-39.195v-133.492l27.313-27.313h188.687v56h-16a8 8 0 0 0 -8 8v56a32.056 32.056 0 0 0 24 30.987v41.013a8 8 0 0 0 16 0v-41.013a32.056 32.056 0 0 0 24-30.987v-56a8 8 0 0 0 -8-8h-16v-64a8 8 0 0 0 -8-8h-200a8 8 0 0 0 -5.657 2.343l-32 32a8 8 0 0 0 -2.343 5.657v320a8 8 0 0 0 8 8h8v49.013a32 32 0 1 0 16 0v-17.013h416v17.013a32 32 0 1 0 16 0zm-208-281.013a16 16 0 0 1 -32 0v-16h32zm0-48v16h-32v-16zm192 208a24.042 24.042 0 0 1 16-22.629v78.629h-16zm-232-24h168a16.019 16.019 0 0 1 16 16v32h-184zm-72.155 27.4a56.08 56.08 0 0 1 48.155-27.4h8v48h-64.022a39.769 39.769 0 0 0 7.867-20.6zm-39.845-27.4a24 24 0 1 1 -24 24 24.028 24.028 0 0 1 24-24zm-56 64h384v16h-384zm-8 112a16 16 0 1 1 -16-16 16.019 16.019 0 0 1 16 16zm-24-96v-158.629a24.042 24.042 0 0 1 16 22.629v136zm16 32v-16h416v16zm424 80a16 16 0 1 1 16-16 16.019 16.019 0 0 1 -16 16z"/><path d="m392 184h32a8 8 0 0 0 8-8v-16h16a8 8 0 0 0 8-8v-32a8 8 0 0 0 -8-8h-16v-16a8 8 0 0 0 -8-8h-32a8 8 0 0 0 -8 8v16h-16a8 8 0 0 0 -8 8v32a8 8 0 0 0 8 8h16v16a8 8 0 0 0 8 8zm-16-40v-16h16a8 8 0 0 0 8-8v-16h16v16a8 8 0 0 0 8 8h16v16h-16a8 8 0 0 0 -8 8v16h-16v-16a8 8 0 0 0 -8-8z"/></svg>