<svg height="512" viewBox="0 0 64 64" width="512" xmlns="http://www.w3.org/2000/svg"><g id="_10_Contact" data-name="10 Contact"><path d="m3 3v58h58v-58zm43.808 50h-29.616v-9.756a4.267 4.267 0 0 1 2.575-3.944 31.629 31.629 0 0 1 12.233-2.464 8.918 8.918 0 1 1 8.918-8.918 8.918 8.918 0 0 1 -8.918 8.918 31.629 31.629 0 0 1 12.233 2.464 4.267 4.267 0 0 1 2.575 3.948z" fill="#4370ff"/><path d="m1 1v14.5h4v-10.5h5.667v6h4v-6h5.666v6h4v-6h5.667v6h4v-6h5.667v6h4v-6h5.666v6h4v-6h5.667v54h-54v-39.5h-4v43.5h62v-62z"/><path d="m15.192 51v4h33.616v-11.756a6.242 6.242 0 0 0 -3.8-5.792 33.618 33.618 0 0 0 -5.366-1.741 10.918 10.918 0 1 0 -15.28 0 33.618 33.618 0 0 0 -5.366 1.741 6.242 6.242 0 0 0 -3.8 5.792v3.756h4v-3.756a2.283 2.283 0 0 1 1.349-2.1 29.648 29.648 0 0 1 22.918 0 2.283 2.283 0 0 1 1.349 2.1v7.756zm16.808-16.164a6.918 6.918 0 1 1 6.918-6.918 6.926 6.926 0 0 1 -6.918 6.918z"/></g></svg>