<?xml version="1.0" encoding="iso-8859-1"?>
<!-- Generator: Adobe Illustrator 19.0.0, SVG Export Plug-In . SVG Version: 6.00 Build 0)  -->
<svg version="1.1" id="Capa_1" xmlns="http://www.w3.org/2000/svg" xmlns:xlink="http://www.w3.org/1999/xlink" x="0px" y="0px"
	 viewBox="0 0 512 512" style="enable-background:new 0 0 512 512;" xml:space="preserve">
<g>
	<path style="fill:#A4C2F7;" d="M435.2,455.803c26.807-8.582,42.641-18.829,42.667-29.17v-59.699
		c0,10.35-15.837,20.598-42.665,29.175L435.2,455.803z"/>
	<path style="fill:#FFFFFF;" d="M76.774,396.1c-26.813-8.576-42.641-18.82-42.641-29.167l0.003,59.699
		c0.026,10.342,15.864,20.591,42.678,29.174L76.774,396.1z"/>
	<path style="fill:#A4C2F7;" d="M420.083,401.067c35.898-9.077,57.784-20.859,57.784-33.026c0-8.939-11.821-16.918-32.326-23.536
		c-13.329,9.587-28.454,16.387-44.472,19.995L420.083,401.067z"/>
	<g>
		<path style="fill:#D4E1F4;" d="M230.4,418.133c-122.533,0-170.666-11.383-170.667-37.304l0.003,59.699
			c0.065,25.91,48.17,37.338,170.664,37.338s221.802-11.429,221.867-37.338v-59.699C452.267,406.75,352.933,418.133,230.4,418.133z"
			/>
		<path style="fill:#D4E1F4;" d="M419.941,358.4C395.709,379.714,308.59,384,204.8,384c-81.152,0-126.492-10.564-165.175-25.6
			c-3.204,2.457-5.203,6.169-5.492,10.196c0,25.921,73.733,49.537,196.267,49.537s221.867-10.276,221.867-36.197
			C452.267,372.997,440.446,365.019,419.941,358.4z"/>
	</g>
	<path style="fill:#A4C2F7;" d="M401.072,364.505c31.945-9.064,51.166-20.345,51.194-31.739v-59.699
		c0,11.404-19.229,22.685-51.201,31.742L401.072,364.505z"/>
	<path style="fill:#FFFFFF;" d="M59.729,304.807C27.76,295.75,8.534,284.47,8.533,273.067l0.003,59.699
		c0.028,11.386,19.222,22.659,51.127,31.719L59.729,304.807z"/>
	<path style="fill:#D4E1F4;" d="M230.398,324.267C121.067,320,34.134,316.054,34.133,290.133v51.2
		C34.19,367.243,122.038,384,230.399,384s196.211-16.757,196.268-42.667v-51.2C426.667,316.054,338.712,328.494,230.398,324.267z"/>
	<path style="fill:#FFFFFF;" d="M119.467,272.919c-30.826-7.844-51.688-17.652-57.803-27.864
		c-33.101,7.498-53.131,17.493-53.131,29.119c0,15.836,37.075,31.019,93.865,40.436L119.467,272.919z"/>
	<path style="fill:#D4E1F4;" d="M315.733,290.133c-112.754,0-205.792-21.459-219.936-45.079
		c-33.101,7.498-53.131,17.493-53.131,29.119c0,25.921,99.333,50.093,221.867,50.093s179.838-24.172,179.838-50.093
		c-0.026-1.15-0.241-2.287-0.638-3.367C403.034,282.259,384.014,290.133,315.733,290.133z"/>
	<path style="fill:#A4C2F7;" d="M469.338,265.143c21.598-7.938,34.105-17.054,34.128-26.244V179.2c0,8.948-13.59,17.818-34.133,25.6
		L469.338,265.143z"/>
	<path style="fill:#D4E1F4;" d="M256,230.4c-122.533,0-196.266-25.279-196.267-51.2l0.003,59.699
		c0.065,25.91,73.77,51.234,196.264,51.234s221.802-25.324,221.867-51.234V179.2C477.867,205.121,378.533,230.4,256,230.4z"/>
	<path style="fill:#A4C2F7;" d="M445.676,213.335c35.902-9.078,57.791-20.86,57.791-33.028c0-12.388-22.727-22.926-59.794-30.56
		c-12.999,8.629-27.425,14.885-42.609,18.477L445.676,213.335z"/>
	<path style="fill:#D4E1F4;" d="M421.523,149.747c-25.015,20.654-105.487,37.986-200.969,37.986
		c-52.334,0.73-104.544-5.29-155.338-17.912c-3.221,2.569-5.211,6.375-5.483,10.486c0,25.921,93.603,50.093,209.067,50.093
		s209.067-24.172,209.067-50.093C477.867,167.919,456.451,157.381,421.523,149.747z"/>
	<path style="fill:#A4C2F7;" d="M435.199,155.219c10.98-5.956,17.051-12.32,17.067-18.72V76.8c0,6.409-6.073,12.779-17.067,18.737
		L435.199,155.219z"/>
	<path style="fill:#FFFFFF;" d="M40.915,102.402C20.372,94.62,8.533,85.748,8.533,76.8l0.003,59.699
		c0.02,7.907,9.282,15.759,25.625,22.854L40.915,102.402z"/>
	<path style="fill:#D4E1F4;" d="M204.8,128C82.294,130.552,29.064,112.267,25.597,93.901L25.6,153.6
		c15.997,21.867,56.706,34.133,179.2,34.133s230.335-16.791,230.4-42.701V102.4C408.267,123.467,320,125.6,204.8,128z"/>
	<path style="fill:#A4C2F7;" d="M341.334,39.608c66.316,7.179,110.932,20.927,110.932,38.299s-44.617,33.958-110.932,43.009V39.608z
		"/>
	<path style="fill:#FFFFFF;" d="M85.331,115.222C38.294,105.759,8.533,92.095,8.533,77.907s29.762-25.96,76.801-33.709
		L85.331,115.222z"/>
	
		<linearGradient id="SVGID_1_" gradientUnits="userSpaceOnUse" x1="-48.6323" y1="652.1261" x2="-48.1181" y2="649.9757" gradientTransform="matrix(392.5334 0 0 -93.8667 19219.2676 61190.0703)">
		<stop  offset="0" style="stop-color:#D3DFF2"/>
		<stop  offset="0.1717" style="stop-color:#D3DFF2"/>
		<stop  offset="0.2" style="stop-color:#D3DFF2"/>
		<stop  offset="0.2002" style="stop-color:#DAE2F2"/>
		<stop  offset="0.2007" style="stop-color:#EBEAF2"/>
		<stop  offset="0.2014" style="stop-color:#F6EFF2"/>
		<stop  offset="0.2023" style="stop-color:#FDF2F2"/>
		<stop  offset="0.205" style="stop-color:#FFF3F2"/>
		<stop  offset="0.2522" style="stop-color:#FFF3F2"/>
		<stop  offset="0.26" style="stop-color:#FFF3F2"/>
		<stop  offset="0.26" style="stop-color:#D3DFF2"/>
		<stop  offset="0.3974" style="stop-color:#D3DFF2"/>
		<stop  offset="0.42" style="stop-color:#D3DFF2"/>
		<stop  offset="0.4202" style="stop-color:#DAE2F2"/>
		<stop  offset="0.4207" style="stop-color:#EBEAF2"/>
		<stop  offset="0.4214" style="stop-color:#F6EFF2"/>
		<stop  offset="0.4223" style="stop-color:#FDF2F2"/>
		<stop  offset="0.425" style="stop-color:#FFF3F2"/>
		<stop  offset="0.4894" style="stop-color:#FFF3F2"/>
		<stop  offset="0.5" style="stop-color:#FFF3F2"/>
		<stop  offset="0.5" style="stop-color:#F8F0F2"/>
		<stop  offset="0.5001" style="stop-color:#E7E8F2"/>
		<stop  offset="0.5003" style="stop-color:#DCE3F2"/>
		<stop  offset="0.5005" style="stop-color:#D5E0F2"/>
		<stop  offset="0.501" style="stop-color:#D3DFF2"/>
		<stop  offset="0.7062" style="stop-color:#D3DFF2"/>
		<stop  offset="0.74" style="stop-color:#D3DFF2"/>
		<stop  offset="0.741" style="stop-color:#FFF3F2"/>
		<stop  offset="0.8346" style="stop-color:#FFF3F2"/>
		<stop  offset="0.85" style="stop-color:#FFF3F2"/>
		<stop  offset="0.851" style="stop-color:#D3DFF2"/>
	</linearGradient>
	<path style="fill:url(#SVGID_1_);" d="M426.667,77.907c0,25.921-87.872,50.093-196.267,50.093
		c-72.299,0-135.467-10.754-169.52-25.607c-17.002-7.416-26.746-15.854-26.746-24.485c0-25.921,87.872-43.774,196.267-43.774
		S426.667,51.987,426.667,77.907z"/>
	<g>
		<path style="fill:#428DFF;" d="M256,486.4c-95.608,0-230.296-18.537-230.396-59.746L25.6,366.933h17.067
			c0,14.65,83.079,42.667,213.333,42.667s213.333-28.017,213.333-42.667H486.4v59.7C486.296,467.863,351.604,486.4,256,486.4z
			 M42.667,390.225l0.004,36.408c0.033,14.65,83.142,42.7,213.329,42.7s213.296-28.054,213.333-42.721v-36.388
			C432.804,413.408,343.25,426.667,256,426.667C168.758,426.667,79.2,413.404,42.667,390.225z"/>
		<path style="fill:#428DFF;" d="M76.8,464.317c-4.713,0-8.533-3.82-8.533-8.533v-59.692c0-4.713,3.821-8.533,8.533-8.533
			c4.713,0,8.533,3.821,8.533,8.533v59.692C85.333,460.496,81.513,464.317,76.8,464.317z"/>
		<path style="fill:#428DFF;" d="M435.2,464.317c-4.713,0-8.533-3.82-8.533-8.533v-59.692c0-4.713,3.82-8.533,8.533-8.533
			s8.533,3.821,8.533,8.533v59.692C443.733,460.496,439.913,464.317,435.2,464.317z"/>
		<path style="fill:#428DFF;" d="M119.467,474.796c-4.713,0-8.533-3.821-8.533-8.533V406.55c0-4.713,3.821-8.533,8.533-8.533
			c4.713,0,8.533,3.82,8.533,8.533v59.713C128,470.975,124.179,474.796,119.467,474.796L119.467,474.796z"/>
		<path style="fill:#428DFF;" d="M392.533,474.796c-4.713,0-8.533-3.821-8.533-8.533V406.55c0-4.713,3.82-8.533,8.533-8.533
			s8.533,3.82,8.533,8.533v59.713C401.066,470.975,397.246,474.796,392.533,474.796z"/>
		<path style="fill:#428DFF;" d="M162.133,481.196c-4.713,0-8.533-3.821-8.533-8.533v-59.721c0-4.713,3.821-8.533,8.533-8.533
			c4.713,0,8.533,3.82,8.533,8.533v59.721C170.666,477.375,166.846,481.196,162.133,481.196z"/>
		<path style="fill:#428DFF;" d="M349.867,481.196c-4.713,0-8.533-3.821-8.533-8.533v-59.721c0-4.713,3.821-8.533,8.533-8.533
			c4.713,0,8.533,3.82,8.533,8.533v59.721C358.4,477.375,354.579,481.196,349.867,481.196z"/>
		<path style="fill:#428DFF;" d="M204.8,484.883c-4.713,0-8.533-3.821-8.533-8.533v-59.729c0-4.713,3.821-8.533,8.533-8.533
			c4.713,0,8.533,3.82,8.533,8.533v59.729C213.333,481.063,209.513,484.883,204.8,484.883L204.8,484.883z"/>
		<path style="fill:#428DFF;" d="M307.2,484.883c-4.713,0-8.533-3.821-8.533-8.533v-59.729c0-4.713,3.82-8.533,8.533-8.533
			s8.533,3.82,8.533,8.533v59.729C315.733,481.063,311.913,484.883,307.2,484.883L307.2,484.883z"/>
		<path style="fill:#428DFF;" d="M256,486.4c-4.713,0-8.533-3.82-8.533-8.533v-59.733c0-4.713,3.821-8.533,8.533-8.533
			c4.713,0,8.533,3.82,8.533,8.533v59.733C264.533,482.58,260.713,486.4,256,486.4z"/>
		<path style="fill:#428DFF;" d="M230.4,392.533c-95.608,0-230.296-18.537-230.396-59.746L0,273.067h17.067
			c0,14.65,83.079,42.667,213.333,42.667s213.333-28.017,213.333-42.667H460.8v59.7C460.696,373.996,326.004,392.533,230.4,392.533z
			 M17.067,296.358l0.004,36.408c0.033,14.65,83.142,42.7,213.329,42.7s213.296-28.054,213.333-42.721v-36.387
			C407.204,319.542,317.65,332.8,230.4,332.8C143.158,332.8,53.6,319.538,17.067,296.358z"/>
		<path style="fill:#428DFF;" d="M51.2,370.45c-4.713,0-8.533-3.82-8.533-8.533v-59.692c0-4.713,3.821-8.533,8.533-8.533
			s8.533,3.821,8.533,8.533v59.692C59.733,366.63,55.913,370.45,51.2,370.45z"/>
		<path style="fill:#428DFF;" d="M409.6,370.45c-4.713,0-8.533-3.82-8.533-8.533v-59.692c0-4.713,3.821-8.533,8.533-8.533
			c4.713,0,8.533,3.821,8.533,8.533v59.692C418.133,366.63,414.313,370.45,409.6,370.45z"/>
		<path style="fill:#428DFF;" d="M93.867,380.929c-4.713,0-8.533-3.821-8.533-8.533v-59.713c0-4.713,3.821-8.533,8.533-8.533
			c4.713,0,8.533,3.82,8.533,8.533v59.713C102.4,377.109,98.579,380.929,93.867,380.929L93.867,380.929z"/>
		<path style="fill:#428DFF;" d="M366.933,380.929c-4.713,0-8.533-3.821-8.533-8.533v-59.713c0-4.713,3.82-8.533,8.533-8.533
			s8.533,3.82,8.533,8.533v59.713C375.466,377.109,371.646,380.929,366.933,380.929L366.933,380.929z"/>
		<path style="fill:#428DFF;" d="M136.533,387.329c-4.713,0-8.533-3.821-8.533-8.533v-59.721c0-4.713,3.821-8.533,8.533-8.533
			s8.533,3.82,8.533,8.533v59.721C145.066,383.509,141.246,387.329,136.533,387.329z"/>
		<path style="fill:#428DFF;" d="M324.267,387.329c-4.713,0-8.533-3.821-8.533-8.533v-59.721c0-4.713,3.821-8.533,8.533-8.533
			s8.533,3.82,8.533,8.533v59.721C332.8,383.509,328.979,387.329,324.267,387.329z"/>
		<path style="fill:#428DFF;" d="M179.2,391.017c-4.713,0-8.533-3.821-8.533-8.533v-59.729c0-4.713,3.821-8.533,8.533-8.533
			s8.533,3.82,8.533,8.533v59.729C187.733,387.196,183.913,391.016,179.2,391.017L179.2,391.017z"/>
		<path style="fill:#428DFF;" d="M281.6,391.017c-4.713,0-8.533-3.821-8.533-8.533v-59.729c0-4.713,3.82-8.533,8.533-8.533
			s8.533,3.82,8.533,8.533v59.729C290.133,387.196,286.313,391.016,281.6,391.017z"/>
		<path style="fill:#428DFF;" d="M230.4,392.533c-4.713,0-8.533-3.82-8.533-8.533v-59.733c0-4.713,3.82-8.533,8.533-8.533
			s8.533,3.821,8.533,8.533V384C238.933,388.713,235.113,392.533,230.4,392.533z"/>
		<path style="fill:#428DFF;" d="M281.6,298.667c-95.608,0-230.296-18.537-230.396-59.746L51.2,179.2h17.067
			c0,14.65,83.079,42.667,213.333,42.667S494.933,193.85,494.933,179.2H512v59.7C511.896,280.129,377.204,298.667,281.6,298.667z
			 M68.267,202.492l0.004,36.408c0.033,14.65,83.142,42.7,213.329,42.7s213.296-28.054,213.333-42.721v-36.388
			c-36.529,23.183-126.083,36.442-213.333,36.442C194.358,238.933,104.8,225.671,68.267,202.492z"/>
		<path style="fill:#428DFF;" d="M102.4,276.583c-4.713,0-8.533-3.82-8.533-8.533v-59.692c0-4.713,3.821-8.533,8.533-8.533
			c4.713,0,8.533,3.821,8.533,8.533v59.692C110.933,272.763,107.113,276.583,102.4,276.583z"/>
		<path style="fill:#428DFF;" d="M460.8,276.583c-4.713,0-8.533-3.82-8.533-8.533v-59.692c0-4.713,3.82-8.533,8.533-8.533
			s8.533,3.821,8.533,8.533v59.692C469.333,272.763,465.513,276.583,460.8,276.583z"/>
		<path style="fill:#428DFF;" d="M145.067,287.063c-4.713,0-8.533-3.821-8.533-8.533v-59.713c0-4.713,3.821-8.533,8.533-8.533
			c4.713,0,8.533,3.821,8.533,8.533v59.713C153.6,283.242,149.779,287.062,145.067,287.063z"/>
		<path style="fill:#428DFF;" d="M418.133,287.063c-4.713,0-8.533-3.821-8.533-8.533v-59.713c0-4.713,3.82-8.533,8.533-8.533
			s8.533,3.821,8.533,8.533v59.713C426.666,283.242,422.846,287.062,418.133,287.063z"/>
		<path style="fill:#428DFF;" d="M187.733,293.463c-4.713,0-8.533-3.821-8.533-8.533v-59.721c0-4.713,3.821-8.533,8.533-8.533
			c4.713,0,8.533,3.821,8.533,8.533v59.721C196.266,289.642,192.446,293.462,187.733,293.463z"/>
		<path style="fill:#428DFF;" d="M375.467,293.463c-4.713,0-8.533-3.821-8.533-8.533v-59.721c0-4.713,3.821-8.533,8.533-8.533
			c4.713,0,8.533,3.821,8.533,8.533v59.721C384,289.642,380.179,293.462,375.467,293.463z"/>
		<path style="fill:#428DFF;" d="M230.4,297.15c-4.713,0-8.533-3.821-8.533-8.533v-59.729c0-4.713,3.82-8.533,8.533-8.533
			s8.533,3.821,8.533,8.533v59.729C238.933,293.329,235.113,297.15,230.4,297.15z"/>
		<path style="fill:#428DFF;" d="M332.8,297.15c-4.713,0-8.533-3.821-8.533-8.533v-59.729c0-4.713,3.82-8.533,8.533-8.533
			s8.533,3.821,8.533,8.533v59.729C341.333,293.329,337.513,297.15,332.8,297.15L332.8,297.15z"/>
		<path style="fill:#428DFF;" d="M281.6,298.667c-4.713,0-8.533-3.821-8.533-8.533V230.4c0-4.713,3.82-8.533,8.533-8.533
			s8.533,3.82,8.533,8.533v59.733C290.133,294.846,286.313,298.667,281.6,298.667z"/>
		<path style="fill:#428DFF;" d="M230.4,136.533C118.708,136.533,0,115.988,0,77.908C0,59.883,24.617,46.6,75.258,37.292
			c4.635-0.851,9.082,2.215,9.933,6.85c0.851,4.635-2.215,9.082-6.85,9.933c-50.267,9.242-61.275,20.337-61.275,23.833
			c0,14.65,80.996,41.558,213.333,41.558s213.333-26.908,213.333-41.558c0-12.65-71.287-35.242-213.333-35.242
			c-29.633,0-58.125,1.042-84.675,3.092c-4.699,0.364-8.803-3.151-9.167-7.85c-0.364-4.699,3.151-8.803,7.85-9.167
			c26.988-2.083,55.921-3.142,85.992-3.142c23.583,0,230.4,1.467,230.4,52.308C460.8,115.988,342.092,136.533,230.4,136.533z"/>
		<circle style="fill:#428DFF;" cx="108.971" cy="41.6" r="8.533"/>
		<path style="fill:#428DFF;" d="M230.4,196.267c-95.608,0-230.296-18.537-230.396-59.746L0,76.8h17.067
			c0,14.65,83.079,42.667,213.333,42.667S443.733,91.45,443.733,76.8H460.8v59.7C460.696,177.729,326.004,196.267,230.4,196.267z
			 M17.067,100.092l0.004,36.408c0.033,14.65,83.142,42.7,213.329,42.7s213.296-28.054,213.333-42.721v-36.388
			c-36.529,23.183-126.083,36.442-213.333,36.442C143.158,136.533,53.6,123.271,17.067,100.092z"/>
		<path style="fill:#428DFF;" d="M51.2,174.183c-4.713,0-8.533-3.82-8.533-8.533v-59.692c0-4.713,3.821-8.533,8.533-8.533
			s8.533,3.821,8.533,8.533v59.692C59.733,170.363,55.913,174.183,51.2,174.183z"/>
		<path style="fill:#428DFF;" d="M409.6,174.183c-4.713,0-8.533-3.82-8.533-8.533v-59.692c0-4.713,3.821-8.533,8.533-8.533
			c4.713,0,8.533,3.821,8.533,8.533v59.692C418.133,170.363,414.313,174.183,409.6,174.183z"/>
		<path style="fill:#428DFF;" d="M93.867,184.663c-4.713,0-8.533-3.821-8.533-8.533v-59.713c0-4.713,3.821-8.533,8.533-8.533
			c4.713,0,8.533,3.821,8.533,8.533v59.713C102.4,180.842,98.579,184.662,93.867,184.663z"/>
		<path style="fill:#428DFF;" d="M366.933,184.663c-4.713,0-8.533-3.821-8.533-8.533v-59.713c0-4.713,3.82-8.533,8.533-8.533
			s8.533,3.821,8.533,8.533v59.713C375.466,180.842,371.646,184.662,366.933,184.663z"/>
		<path style="fill:#428DFF;" d="M136.533,191.063c-4.713,0-8.533-3.821-8.533-8.533v-59.721c0-3.049,1.626-5.866,4.267-7.39
			s5.893-1.524,8.533,0c2.64,1.524,4.267,4.341,4.267,7.39v59.721C145.066,187.242,141.246,191.062,136.533,191.063L136.533,191.063
			z"/>
		<path style="fill:#428DFF;" d="M324.267,191.063c-4.713,0-8.533-3.821-8.533-8.533v-59.721c0-4.713,3.821-8.533,8.533-8.533
			s8.533,3.821,8.533,8.533v59.721C332.8,187.242,328.979,191.062,324.267,191.063L324.267,191.063z"/>
		<path style="fill:#428DFF;" d="M179.2,194.75c-4.713,0-8.533-3.821-8.533-8.533v-59.729c0-4.713,3.821-8.533,8.533-8.533
			s8.533,3.821,8.533,8.533v59.729C187.733,190.929,183.913,194.75,179.2,194.75L179.2,194.75z"/>
		<path style="fill:#428DFF;" d="M281.6,194.75c-4.713,0-8.533-3.821-8.533-8.533v-59.729c0-4.713,3.82-8.533,8.533-8.533
			s8.533,3.821,8.533,8.533v59.729C290.133,190.929,286.313,194.75,281.6,194.75L281.6,194.75z"/>
		<path style="fill:#428DFF;" d="M230.4,196.267c-4.713,0-8.533-3.821-8.533-8.533V128c0-4.713,3.82-8.533,8.533-8.533
			s8.533,3.821,8.533,8.533v59.733C238.933,192.446,235.113,196.267,230.4,196.267z"/>
		<path style="fill:#428DFF;" d="M256,426.667c-111.692,0-230.4-20.546-230.4-58.625c0.231-6.447,3.256-12.475,8.287-16.513
			l3.908-3.55l4.921,1.913c40.592,15.775,112.508,25.575,187.683,25.575c108.479,0,188.908-19.254,209.504-37.371l3.646-3.204
			l4.612,1.492c25.729,8.308,38.238,18.662,38.238,31.659C486.4,406.121,367.692,426.667,256,426.667z M42.667,368.063
			C42.746,382.717,123.725,409.6,256,409.6c132.338,0,213.333-26.908,213.333-41.558c0-1.783-4.112-7.546-22.163-13.975
			c-31.625,22.475-120.7,38.467-216.771,38.467C156.842,392.533,85.892,383.221,42.667,368.063z"/>
		<path style="fill:#428DFF;" d="M230.4,332.8C118.708,332.8,0,312.254,0,274.175c0-16.087,19.554-28.333,59.779-37.442l6.029-1.367
			l3.175,5.304C79,257.4,160.479,281.6,281.6,281.6c56.488,0.864,112.854-5.523,167.717-19.004l7.775-2.188l2.612,7.637
			c0.704,1.968,1.074,4.039,1.096,6.129C460.8,312.254,342.092,332.8,230.4,332.8z M58.4,254.592
			c-33.746,8.275-41.333,16.858-41.333,19.583c0,14.65,80.996,41.558,213.333,41.558c106.554,0,179.825-17.446,204.333-31.892
			c-50.381,10.314-101.71,15.283-153.133,14.825C175.863,298.667,83.358,280.054,58.4,254.592z"/>
		<path style="fill:#428DFF;" d="M281.6,238.933c-111.692,0-230.4-20.546-230.4-58.625c0.258-6.641,3.447-12.826,8.708-16.887
			l3.412-3.008l4.4,1.154c53.318,12.409,107.94,18.33,162.679,17.633c104.909,0,185.483-18.646,208.033-36.187l3.108-2.417
			l3.854,0.792C490.213,150.621,512,163.354,512,180.308C512,218.388,393.292,238.933,281.6,238.933z M68.529,179.388
			c-0.154,0.284-0.244,0.598-0.262,0.921c0,14.65,80.996,41.558,213.333,41.558s213.333-26.908,213.333-41.558
			c0-3.05-8.979-12.679-49.337-21.433c-32.987,22.138-120.042,37.392-215.196,37.392
			C175.975,196.845,121.664,191.182,68.529,179.388L68.529,179.388z"/>
	</g>
</g>
<g>
</g>
<g>
</g>
<g>
</g>
<g>
</g>
<g>
</g>
<g>
</g>
<g>
</g>
<g>
</g>
<g>
</g>
<g>
</g>
<g>
</g>
<g>
</g>
<g>
</g>
<g>
</g>
<g>
</g>
</svg>
