<?xml version="1.0"?>
<svg xmlns="http://www.w3.org/2000/svg" viewBox="0 0 64 64" width="512" height="512"><g id="Drug-2" data-name="Drug"><rect x="9.153" y="46.208" width="8.004" height="14.005" transform="translate(-17.406 7.709) rotate(-20.001)" style="fill:#bddbff"/><polygon points="26.48 54.74 27.17 56.62 19.65 59.36 19.31 58.42 14.52 45.26 14.18 44.32 21.69 41.59 22.38 43.47 26.48 54.74" style="fill:#bddbff"/><path d="M60.06,14.5a3.006,3.006,0,0,1-1.1,4.1l-3.46,2-3-5.2,3.46-2A3,3,0,0,1,60.06,14.5Z" style="fill:#bddbff"/><path d="M42,29a3,3,0,0,1,0,6H38V29Z" style="fill:#bddbff"/><path d="M26,24H14a6,6,0,0,1,12,0Z" style="fill:#bddbff"/><path d="M55.765,42.141a3.969,3.969,0,0,0-3.058-.135l-6.235,2.269A4,4,0,0,0,43.61,42.16l-13.59-2.4a.967.967,0,0,0-.514.045l-6.531,2.376-.342-.939a1,1,0,0,0-.517-.564.989.989,0,0,0-.764-.034l-7.518,2.737a1,1,0,0,0-.6,1.281h0l-6.578,2.4a1,1,0,0,0-.6,1.281L10.849,61.5a1,1,0,0,0,.939.658.983.983,0,0,0,.342-.061L18.708,59.7h0a1,1,0,0,0,1.281.6l7.518-2.737a1,1,0,0,0,.6-1.281l-.342-.94.611-.222,5.734,1.937a1.01,1.01,0,0,0,.663-.008l2.818-1.026h0l17.854-6.5a4,4,0,0,0,.323-7.382ZM12.386,59.874,8.281,48.6l5.639-2.053,2.052,5.639,2.052,5.638Zm7.859-1.8L15.457,44.922,21.1,42.87l.341.939h0l1.181,3.244,3.266,8.972ZM54.759,47.644,34.415,55.049l-5.734-1.937a.989.989,0,0,0-.662.008l-.94.342-3.42-9.4,6.279-2.285,13.325,2.35A2.007,2.007,0,0,1,44.8,45.42a1.115,1.115,0,0,1,.067.243c0,.035.01.071.017.106a1.827,1.827,0,0,1,.008.677,2.017,2.017,0,0,1-2.319,1.627L31.312,46.087l-.347,1.97,11.259,1.985a4.007,4.007,0,0,0,4.635-3.258,3.949,3.949,0,0,0,.043-.537l6.49-2.362a2,2,0,0,1,1.367,3.759Z" style="fill:#3d9ae2"/><path d="M20,31a7,7,0,1,0-7-7A7.008,7.008,0,0,0,20,31Zm0-2a5.009,5.009,0,0,1-4.9-4h9.8A5.009,5.009,0,0,1,20,29Zm0-10a5.009,5.009,0,0,1,4.9,4H15.1A5.009,5.009,0,0,1,20,19Z" style="fill:#3d9ae2"/><path d="M34,36h8a4,4,0,0,0,0-8H34a4,4,0,0,0,0,8Zm10-4a2,2,0,0,1-2,2H39V30h3A2,2,0,0,1,44,32ZM34,30h3v4H34a2,2,0,0,1,0-4Z" style="fill:#3d9ae2"/><path d="M60.929,14a4.008,4.008,0,0,0-5.465-1.464l-6.928,4a4,4,0,0,0,4,6.928l6.928-4A4.005,4.005,0,0,0,60.929,14Zm-9.393,7.732a2,2,0,1,1-2-3.464l2.6-1.5,2,3.464Zm6.928-4-2.6,1.5-2-3.464,2.6-1.5a2,2,0,0,1,2,3.464Z" style="fill:#3d9ae2"/><rect x="19" y="9" width="2" height="6" style="fill:#3d9ae2"/><rect x="19" y="5" width="2" height="2" style="fill:#3d9ae2"/><rect x="24" y="6" width="2" height="6" style="fill:#3d9ae2"/><rect x="24" y="2" width="2" height="2" style="fill:#3d9ae2"/><rect x="14" y="4" width="2" height="6" style="fill:#3d9ae2"/><rect x="14" y="12" width="2" height="2" style="fill:#3d9ae2"/><rect x="36" y="18" width="2" height="6" style="fill:#3d9ae2"/><rect x="36" y="14" width="2" height="2" style="fill:#3d9ae2"/><rect x="31" y="12" width="2" height="8" style="fill:#3d9ae2"/><rect x="41" y="9" width="2" height="8" style="fill:#3d9ae2"/><rect x="41" y="5" width="2" height="2" style="fill:#3d9ae2"/><rect x="57" y="6" width="2" height="4" style="fill:#3d9ae2"/><rect x="52" y="4" width="2" height="4" style="fill:#3d9ae2"/><rect x="47" y="5" width="2" height="6" style="fill:#3d9ae2"/><rect x="57" y="2" width="2" height="2" style="fill:#3d9ae2"/></g></svg>
