<svg id="Filledoutline" height="512" viewBox="0 0 512 512" width="512" xmlns="http://www.w3.org/2000/svg"><path d="m112 432h96v64h-96z" fill="#f7c9a8"/><path d="m304 432h96v64h-96z" fill="#f7c9a8" transform="matrix(-1 0 0 -1 704 928)"/><path d="m344 448h67.259l-5.771-77.91a80 80 0 0 0 -79.781-74.09h-139.414a80 80 0 0 0 -79.781 74.09l-5.771 77.91h67.259v48h176z" fill="#0093b8"/><path d="m311.83 313.76a98.138 98.138 0 0 1 -2.99 17.94c-5.07 19.22-18.31 44.3-52.84 44.3s-47.77-25.08-52.84-44.3a98.138 98.138 0 0 1 -2.99-17.94z" fill="#f8caa8"/><path d="m311.83 313.76a98.138 98.138 0 0 1 -2.99 17.94 104.46 104.46 0 0 1 -29.72 4.3h-46.24a104.46 104.46 0 0 1 -29.72-4.3 98.138 98.138 0 0 1 -2.99-17.94z" fill="#e99180"/><path d="m279.122 320h-46.244a88.878 88.878 0 0 1 -67.478-31.037 88.876 88.876 0 0 1 -21.4-57.841v-141.846a65.276 65.276 0 0 1 65.276-65.276h93.448a65.276 65.276 0 0 1 65.276 65.276v141.846a88.876 88.876 0 0 1 -21.4 57.841 88.878 88.878 0 0 1 -67.478 31.037z" fill="#f8caa8"/><path d="m368 144h-48a48 48 0 0 1 -48-48v48h-8a48 48 0 0 1 -48-48 48 48 0 0 1 -48 48h-24v-54.72a65.28 65.28 0 0 1 65.28-65.28h93.44a65.28 65.28 0 0 1 65.28 65.28z" fill="#4e4e4f"/><rect fill="#e3e3e2" height="64" rx="32" transform="matrix(-1 0 0 -1 512 224)" width="128" x="192" y="80"/><path d="m112 224a32 32 0 0 0 64 0c0-32-32-48-32-48s-32 16-32 48z" fill="#57c3c1"/><path d="m360 128v218.055a56 56 0 1 0 64 0v-218.055a32 32 0 0 0 -32-32 32 32 0 0 0 -32 32z" fill="#57c3c1"/><circle cx="392" cy="392" fill="#eb5849" r="32"/><path d="m152 152h32v-16h-32v-46.724a57.341 57.341 0 0 1 57.276-57.276h93.448a57.509 57.509 0 0 1 56.7 49.127l15.84-2.254a73.586 73.586 0 0 0 -72.54-62.873h-93.448a73.36 73.36 0 0 0 -73.276 73.276v70.724h16z"/><path d="m345.337 301.839-10.937-11.678a80.6 80.6 0 0 1 -55.278 21.839h-46.244a80.9 80.9 0 0 1 -67.549-36.4l-13.363 8.8a96.918 96.918 0 0 0 6.081 8.233 87.664 87.664 0 0 0 -59.516 76.867l-5.769 77.91a8 8 0 0 0 7.978 8.59h3.26v40h16v-40h40v40h16v-96h-16v40h-50.646l5.134-69.319a71.708 71.708 0 0 1 56.494-65.033 96.729 96.729 0 0 0 21.683 13.62c3.751 32.167 22.059 64.732 63.335 64.732s59.581-32.56 63.334-64.724a96.874 96.874 0 0 0 26.003-17.437zm-50.777 44.313c-8.343 14.702-20.96 21.848-38.56 21.848s-30.217-7.146-38.56-21.848a73.284 73.284 0 0 1 -7.583-20.923 97.009 97.009 0 0 0 23.021 2.771h46.244a97.169 97.169 0 0 0 23.02-2.763 73.275 73.275 0 0 1 -7.582 20.915z"/><path d="m240 224v8a16.019 16.019 0 0 0 16 16h8a8 8 0 0 0 0-16h-8v-8a8 8 0 0 0 -16 0z"/><path d="m326.431 207.845a8 8 0 0 0 3.138-15.69l-24.311-4.862a11.548 11.548 0 0 1 -9.258-11.293 8 8 0 0 0 -16 0 27.59 27.59 0 0 0 22.12 26.982z"/><path d="m184.155 199.969a8 8 0 0 0 9.414 6.276l16.31-3.263a27.589 27.589 0 0 0 22.121-26.982 8 8 0 0 0 -16 0 11.548 11.548 0 0 1 -9.259 11.293l-16.31 3.262a8 8 0 0 0 -6.276 9.414z"/><path d="m264 184v-8a8 8 0 0 0 -16 0v8a8 8 0 0 0 16 0z"/><path d="m228.336 288.546a49.048 49.048 0 0 1 55.328 0 8 8 0 1 0 8.672-13.446c-7.853-5.064-20.531-11.1-36.336-11.1s-28.483 6.036-36.336 11.1a8 8 0 1 0 8.672 13.446z"/><path d="m328 112a40.045 40.045 0 0 0 -40-40h-64a40 40 0 0 0 0 80h64a40.045 40.045 0 0 0 40-40zm-128 0a24.027 24.027 0 0 1 24-24h64a24 24 0 0 1 0 48h-64a24.027 24.027 0 0 1 -24-24z"/><path d="m248 104h16v16h-16z"/><path d="m280 104h16v16h-16z"/><path d="m216 104h16v16h-16z"/><path d="m144 264a40.045 40.045 0 0 0 40-40c0-36.524-34.936-54.412-36.422-55.155a8 8 0 0 0 -7.156 0c-1.486.743-36.422 18.631-36.422 55.155a40.045 40.045 0 0 0 40 40zm.021-78.712c7.473 4.849 23.979 17.912 23.979 38.712a24 24 0 0 1 -48 0c0-20.66 16.567-33.833 24.021-38.712z"/><path d="m336 448h16v48h-16z"/><path d="m392 464h16v32h-16z"/><path d="m400 361.013v-201.013h-16v201.013a32 32 0 1 0 16 0zm-8 46.987a16 16 0 1 1 16-16 16.019 16.019 0 0 1 -16 16z"/><path d="m432 342.055v-214.055a40 40 0 0 0 -80 0v8h-8a40.474 40.474 0 0 1 -6.676-.553l-2.648 15.779a56.45 56.45 0 0 0 9.324.774h8v190.054a63.991 63.991 0 0 0 40 113.946c.39 0 .785 0 1.177-.011a63.99 63.99 0 0 0 38.823-113.934zm-39.109 97.937a47.993 47.993 0 0 1 -28.313-87.377 8 8 0 0 0 3.422-6.56v-218.055a24 24 0 0 1 48 0v218.055a8 8 0 0 0 3.422 6.56 47.993 47.993 0 0 1 -26.531 87.377z"/></svg>